<svg xmlns="http://www.w3.org/2000/svg" viewBox="0 0 520 190" role="img" aria-labelledby="title">
  <title id="title">Caminhos de Rosa Travessias</title>
  <g fill="none" stroke="#fff7ea" stroke-linecap="round" stroke-linejoin="round">
    <path d="M34 120c60-24 108-20 158 3 52 22 104 20 162-3" stroke-width="6"/>
    <path d="M52 94c42-12 80-8 117 7 38 15 76 12 116-5" stroke-width="4"/>
    <path d="M55 46l0 24M43 58h24M47 49l17 18M64 49L47 67" stroke-width="4"/>
    <path d="M138 34v105M105 78h72M116 55h50M118 100h52" stroke-width="7"/>
    <path d="M138 34c-31 31-47 66-47 105M138 34c34 31 50 66 50 105" stroke-width="6"/>
    <path d="M122 26c10-15 22-22 36-24M135 25c10-19 25-27 42-25M151 30c13-16 28-21 47-18M106 43c-18-2-32 2-43 12M113 30c-19-10-36-11-53-2M157 44c22-9 42-9 60 1M163 58c20-1 35 5 47 17" stroke-width="4"/>
    <path d="M436 47c16-12 34-12 53 0-20 0-29 8-37 20-4-12-9-18-16-20z" fill="#fff7ea" stroke="none"/>
    <path d="M436 47c-18 2-31 9-40 21 21-5 38-3 56-1" stroke-width="5"/>
  </g>
  <g fill="#fff7ea" font-family="Impact, 'Arial Black', sans-serif" font-weight="900">
    <text x="214" y="78" font-size="42" letter-spacing="-1">CAMINHOS</text>
    <text x="214" y="128" font-size="52" letter-spacing="-2">DE ROSA</text>
  </g>
  <text x="382" y="151" fill="#fff7ea" font-family="Georgia, serif" font-size="18" font-style="italic">travessias</text>
</svg>
